[size=6][b]Underworld Evolution 2006 1080p [Eng(5.1)-Hindi(2.1)] Mr.A~{PHDR}~[/b][/size]

[img]http://img196.imageshack.us/img196/4411/coverngw.jpg[/img]


[img]http://img16.imageshack.us/img16/5184/cooltext522897865.png[/img]
[img]http://img13.imageshack.us/img13/6687/cooltext522900888.png[/img]

 
[size=4][b]Media Info[/b][/size]

General

Complete name                            : Underworld Evolution 2006 1080p [Eng(5.1)-Hindi(2.1)] Mr.A~{PHDR}~.mkv
Format                                   : Matroska
Format version                           : Version 2
File size                                : 3.01 GiB
Duration                                 : 1h 46mn
Overall bit rate                         : 4 048 Kbps

Video

ID                                       : 1
Format                                   : AVC
Format/Info                              : Advanced Video Codec
Format profile                           : High@L4.1
Format settings, CABAC                   : Yes
Format settings, ReFrames                : 4 frames
Muxing mode                              : Header stripping
Codec ID                                 : V_MPEG4/ISO/AVC
Duration                                 : 1h 46mn
Bit rate                                 : 3 350 Kbps
Width                                    : 1 920 pixels
Height                                   : 800 pixels
Display aspect ratio                     : 2.40:1
Frame rate                               : 23.976 fps
Color space                              : YUV
Chroma subsampling                       : 4:2:0
Bit depth                                : 8 bits
Scan type                                : Progressive
Bits/(Pixel*Frame)                       : 0.091
Stream size                              : 2.43 GiB (81%)
Title                                    : Mr.A
Language                                 : English
Default                                  : Yes
Forced                                   : No

Audio #1

ID                                       : 2
Format                                   : AC-3
Format/Info                              : Audio Coding 3
Mode extension                           : CM (complete main)
Muxing mode                              : Header stripping
Codec ID                                 : A_AC3
Duration                                 : 1h 46mn
Bit rate mode                            : Constant
Bit rate                                 : 448 Kbps
Channel(s)                               : 6 channels
Channel positions                        : Front: L C R, Side: L R, LFE
Sampling rate                            : 48.0 KHz
Bit depth                                : 16 bits
Compression mode                         : Lossy
Stream size                              : 341 MiB (11%)
Title                                    : Mr.A
Language                                 : English
Default                                  : Yes
Forced                                   : No

Audio #2

ID                                       : 3
Format                                   : AC-3
Format/Info                              : Audio Coding 3
Mode extension                           : CM (complete main)
Muxing mode                              : Header stripping
Codec ID                                 : A_AC3
Duration                                 : 1h 46mn
Bit rate mode                            : Constant
Bit rate                                 : 256 Kbps
Channel(s)                               : 2 channels
Channel positions                        : Front: L R
Sampling rate                            : 48.0 KHz
Bit depth                                : 16 bits
Compression mode                         : Lossy
Stream size                              : 195 MiB (6%)
Title                                    : Mr.A
Language                                 : Hindi
Default                                  : No
Forced                                   : No

Text

ID                                       : 4
Format                                   : UTF-8
Codec ID                                 : S_TEXT/UTF8
Codec ID/Info                            : UTF-8 Plain Text
Title                                    : Mr.A
Language                                 : English
Default                                  : Yes
Forced                                   : No



[size=4][b]Screens[/b][/size]


[img]http://img205.imageshack.us/img205/8651/screenshot2zu.jpg[/img]
[img]http://img815.imageshack.us/img815/540/screenshot3h.jpg[/img]
[img]http://img202.imageshack.us/img202/2082/screenshot4od.jpg[/img]
[img]http://img38.imageshack.us/img38/6300/screenshot1ffz.jpg[/img]


[img]http://img685.imageshack.us/img685/1050/hddesirockers.png[/img]

 
http://img163.imageshack.us/img163/9464/facebookbutton.gif[/IMG][/url]